<svg xmlns="http://www.w3.org/2000/svg" viewBox="0 0 50 50"><defs><style>.cls-1{fill:#bf5630;}.cls-2{fill:#efefef;}</style></defs><g id="Layer_2" data-name="Layer 2"><g id="Layer_1-2" data-name="Layer 1"><rect class="cls-1" width="50" height="50" rx="12"/><path class="cls-2" d="M32.48,19.93c.17.27.34.53.5.81a17.81,17.81,0,0,1,2.26,6.32,11.48,11.48,0,0,1-.52,5.42,18.39,18.39,0,0,1-5.26,7.76l-.14.12-.08,0a38.24,38.24,0,0,0,1.25-6.78,20.07,20.07,0,0,1-3.69,2.15A17.51,17.51,0,0,1,23.88,25c-.39.31-.74.55-1,.83a11.06,11.06,0,0,0-3.47,6.31,17.22,17.22,0,0,0,.57,8c0,.1,0,.21.1.39l-.66-.53a14,14,0,0,1-4-5.6,10.48,10.48,0,0,1,0-7.73C16.09,24.73,17,23,17.9,21.15s1.85-3.57,2.75-5.37a9.78,9.78,0,0,0,1.17-4.39c0-.6-.05-1.21-.08-1.84a1.73,1.73,0,0,1,.24.1,15.34,15.34,0,0,1,6.72,7.24,12.43,12.43,0,0,1,1,4.53c.06,1.49.1,3,.07,4.47a11.49,11.49,0,0,1-.92,4.58c.68-.48,2.21-3.22,2.76-4.89A15.81,15.81,0,0,0,32.41,20Z"/></g></g></svg>